<?xml version="1.0" encoding="UTF-8"?>
<svg width="21px" height="29px" viewBox="0 0 21 29" version="1.1" xmlns="http://www.w3.org/2000/svg" xmlns:xlink="http://www.w3.org/1999/xlink">
    <!-- Generator: Sketch 51.3 (57544) - http://www.bohemiancoding.com/sketch -->
    <title>marker</title>
    <desc>Created with Sketch.</desc>
    <defs></defs>
    <g id="Page-1" stroke="none" stroke-width="1" fill="none" fill-rule="evenodd">
        <g id="marker" transform="translate(1.000000, 1.000000)" fill-rule="nonzero">
            <path d="M15.95,3.20943396 C12.4,-0.40754717 6.65,-0.40754717 3.1,3.20943396 C-0.1,6.46981132 -0.5,12.6339623 2.25,16.3018868 L9.2930463,26.6946187 C9.37050444,26.8089161 9.525953,26.8387802 9.64025037,26.7613221 C9.66651624,26.743522 9.6891536,26.7208846 9.7069537,26.6946187 L16.75,16.3018868 C19.5,12.6339623 19.1,6.46981132 15.95,3.20943396 Z" id="Shape" stroke="#9C1311" fill="#D5403E"></path>
            <path d="M9.6,12.7358491 C7.95,12.7358491 6.6,11.3603774 6.6,9.67924528 C6.6,7.99811321 7.95,6.62264151 9.6,6.62264151 C11.25,6.62264151 12.6,7.99811321 12.6,9.67924528 C12.6,11.3603774 11.25,12.7358491 9.6,12.7358491 Z" id="Path" fill="#9C1311"></path>
        </g>
    </g>
</svg>